Coordinates
nRows=4
nColumns=38

# SIMM Motion File Header:
name Coordinates
datacolumns 38
datarows 4
otherdata 1
range 1.35037000000000010000 1.35337000000000000000

Units are S.I. units (second, meters, Newtons, ...)
Angles are in degrees.

endheader
time	pelvis_tilt	pelvis_list	pelvis_rotation	pelvis_tx	pelvis_ty	pelvis_tz	hip_flexion_r	hip_adduction_r	hip_rotation_r	knee_angle_r	ankle_angle_r	subtalar_angle_r	mtp_angle_r	hip_flexion_l	hip_adduction_l	hip_rotation_l	knee_angle_l	ankle_angle_l	subtalar_angle_l	mtp_angle_l	lumbar_extension	lumbar_bending	lumbar_rotation	arm_flex_r	arm_add_r	arm_rot_r	elbow_flex_r	pro_sup_r	wrist_flex_r	wrist_dev_r	arm_flex_l	arm_add_l	arm_rot_l	elbow_flex_l	pro_sup_l	wrist_flex_l	wrist_dev_l
      1.35037000000000010000	     -4.20270567970372700000	      2.96415535149762820000	      1.00363684389183350000	      0.91615289711246428000	      1.10044856591773610000	     -0.31527533510086597000	     -3.26697189531515520000	      0.73794015612653918000	      1.67453289628021370000	    -43.38302912381991700000	     -5.14664144490106160000	     -0.00000000000001774734	      0.00000000000006217269	     24.64423079044301800000	      6.03919351419985160000	      2.70772588413285660000	    -16.61199735703901600000	     11.22109174414331200000	     -0.00000000000002786957	      0.00000000000003168609	    -10.29656384297717500000	     -3.55406236344904200000	      7.37771975398610550000	    -10.37946636703241800000	    -25.47173008526650100000	      1.59553252910419460000	    128.91511603135012000000	    107.17803235547927000000	     -0.00000000000001303498	      0.00000000000000508504	    -35.43813213224176900000	    -20.06206234082844000000	      4.51063514758343050000	    114.40730829833304000000	     99.00359519906345400000	      0.00000000000000539421	     -0.00000000000002259563
      1.35137000000000000000	     -4.15594244726244710000	      2.96486242192794070000	      1.02810716202918350000	      0.91620888232196784000	      1.10012112795787460000	     -0.31532246774785738000	     -3.18693099872913790000	      0.74737193326688200000	      1.68537506546291630000	    -43.79457209503078700000	     -5.04642569566153480000	     -0.00000000000001779565	      0.00000000000006254472	     24.59321428637142000000	      6.05261623023172120000	      2.63015757864236480000	    -16.67800440755446100000	     11.18650007168594700000	     -0.00000000000002794240	      0.00000000000003179607	    -10.33743850514513500000	     -3.56881227481976370000	      7.30244751103004660000	    -10.46663138228117500000	    -25.43669152675462500000	      1.64248607434370950000	    128.85967455918620000000	    107.12577037049310000000	     -0.00000000000001307285	      0.00000000000000511488	    -35.35841313701349300000	    -20.08279522596248500000	      4.52835774252405090000	    114.43099310862348000000	     98.95971395485420900000	      0.00000000000000541458	     -0.00000000000002269591
      1.35237000000000010000	     -4.10719876372644600000	      2.96527708427292900000	      1.05244682774097600000	      0.91626531958379009000	      1.09978742993174540000	     -0.31536930572208116000	     -3.10783064294742670000	      0.75706499153748463000	      1.69542226880224220000	    -44.20726553579871200000	     -4.94529733620423250000	     -0.00000000000001784444	      0.00000000000006291685	     24.53981419736472700000	      6.06564873339082930000	      2.55409919684231790000	    -16.74797456673439200000	     11.14810649708094700000	     -0.00000000000002801426	      0.00000000000003190422	    -10.38043592026767700000	     -3.58318000749460990000	      7.22648465483898760000	    -10.55361173112728000000	    -25.40165044381209500000	      1.68910499543347050000	    128.80190865532464000000	    107.07553541410228000000	     -0.00000000000001311085	      0.00000000000000514471	    -35.27724022145967800000	    -20.10382491799873300000	      4.54662113372153080000	    114.45364960228977000000	     98.91630515444485600000	      0.00000000000000543504	     -0.00000000000002279616
      1.35337000000000000000	     -4.05655593029316110000	      2.96538190651473150000	      1.07663821695550200000	      0.91632222257125406000	      1.09944730929442190000	     -0.31541586406844457000	     -3.02961231499498180000	      0.76701349320846224000	      1.70466360731895740000	    -44.62103234231543800000	     -4.84341709813648080000	     -0.00000000000001789293	      0.00000000000006328775	     24.48413578809527600000	      6.07826700649246640000	      2.47956845612621550000	    -16.82190086495158000000	     11.10594268780737600000	     -0.00000000000002808636	      0.00000000000003201106	    -10.42544676022149600000	     -3.59714120537435680000	      7.14986866937795630000	    -10.64043102135204300000	    -25.36661750354340200000	      1.73537917281494130000	    128.74181325160532000000	    107.02730263859557000000	     -0.00000000000001314866	      0.00000000000000517446	    -35.19464412636826000000	    -20.12514840852273300000	      4.56542275237173990000	    114.47526111490799000000	     98.87344749762493700000	      0.00000000000000545572	     -0.00000000000002289642
